<svg width="33" height="36" viewBox="0 0 33 36" fill="none" xmlns="http://www.w3.org/2000/svg">
<path fill-rule="evenodd" clip-rule="evenodd" d="M17.6121 0.310299C18.1822 0.41806 18.7159 0.599456 19.2315 0.860775C19.8393 1.16872 29.8648 6.96505 30.2834 7.2504C31.3415 7.97191 32.1578 9.16101 32.5151 10.5014L32.6709 11.0861V17.8902V24.6943L32.5151 25.279C32.1578 26.6194 31.3415 27.8085 30.2834 28.53C29.8644 28.8156 19.8393 34.6117 19.23 34.9205C17.5598 35.767 15.6611 35.767 13.9909 34.9205C13.3817 34.6117 3.35659 28.8156 2.93756 28.53C1.87944 27.8085 1.06316 26.6194 0.705894 25.279L0.550056 24.6943V17.8902V11.0861L0.705894 10.5014C1.06316 9.16101 1.87944 7.97191 2.93756 7.2504C3.38594 6.94474 13.4269 1.14413 14.0282 0.843436C15.1705 0.272238 16.424 0.0857988 17.6121 0.310299ZM15.6089 3.15731C15.213 3.30942 4.93134 9.22014 4.43903 9.57858C4.0504 9.86152 3.69168 10.3328 3.47319 10.8472L3.31314 11.2243L3.294 17.683C3.28143 21.9342 3.29925 24.2555 3.34616 24.4748C3.38539 24.658 3.49868 24.9797 3.59794 25.1895C3.96799 25.9716 4.05434 26.0293 9.91366 29.4058C12.8941 31.1234 15.4724 32.5819 15.6434 32.6469C16.1025 32.8218 17.1578 32.8124 17.6121 32.6294C18.0246 32.4633 28.3148 26.542 28.7819 26.2018C29.1602 25.9264 29.5043 25.472 29.7404 24.9361L29.9078 24.5561L29.9269 18.0974C29.9391 13.9903 29.921 11.5216 29.8772 11.3169C29.765 10.7924 29.4545 10.2212 29.0785 9.84749C28.7969 9.56759 27.6384 8.87047 23.3021 6.37154C20.3189 4.65235 17.7404 3.20097 17.5724 3.14626C17.4042 3.09148 17.2045 3.03104 17.1286 3.01177C16.8498 2.94124 15.9459 3.02779 15.6089 3.15731ZM24.3816 12.2362C25.1581 12.5223 25.5218 13.3853 25.1817 14.1343C25.0784 14.362 24.6409 14.7659 23.0121 16.1375C21.89 17.0825 20.9719 17.8712 20.9719 17.8902C20.9719 17.9092 21.8903 18.6982 23.0128 19.6435C24.7434 21.1009 25.0747 21.4097 25.1916 21.6741C25.4801 22.3262 25.2097 23.1205 24.5889 23.4448C24.2534 23.6199 23.649 23.6323 23.3455 23.4702C23.2315 23.4093 21.9197 22.3284 20.4304 21.0682C17.52 18.6055 17.4394 18.5198 17.4394 17.8902C17.4394 17.2606 17.52 17.1749 20.4304 14.7122C21.9197 13.452 23.2254 12.3754 23.332 12.3197C23.5909 12.1844 24.1256 12.1419 24.3816 12.2362ZM16.0233 20.9578C16.6442 21.2329 16.9903 21.9464 16.8163 22.5926C16.7118 22.9807 16.2617 23.4416 15.885 23.5462C15.7005 23.5974 14.5201 23.6227 12.3277 23.6226L9.04654 23.6222L8.6883 23.4555C7.64793 22.9711 7.65401 21.4647 8.69832 20.9904C8.95722 20.8727 9.22538 20.8636 12.3968 20.8647C15.0893 20.8657 15.8602 20.8855 16.0233 20.9578Z" fill="#FF6600"/>
</svg>
