<svg width="37" height="36" viewBox="0 0 37 36" fill="none" xmlns="http://www.w3.org/2000/svg">
<path d="M18.61 0.206055C22.1075 0.206055 25.5264 1.24319 28.4345 3.1863C31.3426 5.12941 33.6092 7.89124 34.9476 11.1225C36.286 14.3538 36.6362 17.9094 35.9539 21.3397C35.2716 24.77 33.5874 27.921 31.1142 30.3941C28.6411 32.8672 25.4902 34.5514 22.0599 35.2337C18.6296 35.9161 15.074 35.5659 11.8427 34.2274C8.61141 32.889 5.84959 30.6224 3.90648 27.7143C1.96336 24.8063 0.926231 21.3873 0.926231 17.8898C0.931301 13.2013 2.79603 8.70635 6.11127 5.3911C9.42652 2.07586 13.9215 0.211126 18.61 0.206055V0.206055ZM5.86736 10.5216H10.614C11.6765 8.05908 13.0756 5.75593 14.7711 3.67796C11.0185 4.69909 7.81948 7.15793 5.86736 10.5216ZM11.9786 17.8898C11.9907 19.3902 12.2271 20.8803 12.68 22.3107H24.5399C24.9928 20.8803 25.2293 19.3902 25.2414 17.8898C25.2293 16.3894 24.9928 14.8993 24.5399 13.4689H12.68C12.2271 14.8993 11.9907 16.3894 11.9786 17.8898ZM23.358 25.258H13.8619C15.1127 27.7274 16.7117 30.0044 18.61 32.0191C20.5089 30.005 22.108 27.7279 23.358 25.258ZM23.358 10.5216C22.1073 8.05214 20.5082 5.77519 18.61 3.76048C16.711 5.77462 15.1119 8.05167 13.8619 10.5216H23.358ZM22.4414 3.67796C24.1396 5.75548 25.5411 8.05866 26.606 10.5216H31.3526C29.3987 7.1564 26.1968 4.69736 22.4414 3.67796ZM32.6671 13.4689H27.5992C27.9812 14.9118 28.1793 16.3972 28.1887 17.8898C28.1793 19.3824 27.9812 20.8678 27.5992 22.3107H32.6671C33.5728 19.433 33.5728 16.3465 32.6671 13.4689ZM31.3526 25.258H26.606C25.5411 27.7209 24.1396 30.0241 22.4414 32.1016C26.1968 31.0822 29.3987 28.6232 31.3526 25.258ZM14.7711 32.1016C13.0756 30.0236 11.6765 27.7205 10.614 25.258H5.86736C7.81948 28.6216 11.0185 31.0805 14.7711 32.1016ZM4.55287 22.3107H9.62073C9.2387 20.8678 9.04064 19.3824 9.03127 17.8898C9.04064 16.3972 9.2387 14.9118 9.62073 13.4689H4.55581C3.65002 16.3465 3.65002 19.433 4.55581 22.3107H4.55287Z" fill="#FF6600"/>
</svg>
