<svg width="36" height="35" viewBox="0 0 36 35" fill="none" xmlns="http://www.w3.org/2000/svg">
<path fill-rule="evenodd" clip-rule="evenodd" d="M33.0406 0.126508C34.2826 0.460991 35.2275 1.41561 35.5527 2.66443C35.7061 3.25302 35.7061 24.5155 35.5527 25.104C35.2237 26.3675 34.2749 27.3163 33.0114 27.6454C32.6812 27.7314 31.7697 27.7471 27.1039 27.7471H21.5867V29.3177V30.8884L22.0135 30.8888C23.9493 30.8906 25.3986 32.0938 25.6366 33.8965C25.7032 34.4012 25.6983 34.4563 25.5703 34.6287C25.4942 34.7312 25.3581 34.853 25.2678 34.8994C25.1407 34.9648 23.5272 34.984 18.1221 34.9848L11.1406 34.9858L10.9279 34.7958C10.6577 34.5543 10.6017 34.1596 10.7536 33.5668C11.1709 31.9379 12.5314 30.8884 14.2258 30.8884H14.7577V29.3177V27.7471H9.24061C4.57478 27.7471 3.66325 27.7314 3.33307 27.6454C2.06957 27.3163 1.12082 26.3675 0.791733 25.104C0.638424 24.5155 0.638424 3.25302 0.791733 2.66443C1.12082 1.40093 2.06957 0.452182 3.33307 0.123093C3.90411 -0.0256421 32.488 -0.0223642 33.0406 0.126508ZM3.27489 1.56811C2.86904 1.7557 2.42434 2.2004 2.23674 2.60625L2.08999 2.92373L2.07196 11.9209L2.05387 20.9181H3.62467H5.19554L5.21343 12.9226L5.23132 4.92708L5.45668 4.72569L5.68203 4.52437L8.65489 4.54356L11.6278 4.56268L11.827 4.78572L12.0262 5.00875V12.9634V20.9181H13.7334H15.4406L15.4413 20.662C15.4456 19.1141 15.6894 15.744 15.9058 14.2402L16.0233 13.4243L15.6223 12.9884C15.2173 12.5482 15.0327 12.2505 14.8481 11.7397C14.5904 11.0271 14.6146 10.0459 14.9066 9.35997C14.9905 9.16282 15.616 8.03351 16.2965 6.85039C17.383 4.96156 17.5638 4.68437 17.7788 4.57695C18.0637 4.43471 18.3086 4.47227 18.5184 4.69025C18.8107 4.99393 21.1786 9.19915 21.3154 9.65765C21.6634 10.8231 21.3439 12.1167 20.4804 13.0377L20.2817 13.2498L20.4195 14.2328C20.6579 15.9325 20.9008 19.1599 20.9034 20.662L20.9038 20.9181H22.6111H24.3183V15.7283V10.5384L25.7657 7.64282C27.2608 4.65159 27.3385 4.52854 27.7328 4.52854C28.1271 4.52854 28.2048 4.65159 29.7 7.64282L31.1473 10.5384V15.7283V20.9181H32.718H34.2886V12.0513C34.2886 2.41169 34.3052 2.84096 33.91 2.27047C33.669 1.92287 33.3107 1.65572 32.8892 1.50958C32.5682 1.39827 31.6611 1.39192 18.0698 1.40619L3.59237 1.42135L3.27489 1.56811ZM6.56297 6.56951V7.24469L7.04899 7.27215C7.49451 7.29735 7.55147 7.31804 7.73189 7.51997C7.85515 7.65792 7.92877 7.81608 7.92877 7.94303C7.92877 8.06998 7.85515 8.22814 7.73189 8.36608C7.55147 8.56801 7.49451 8.58871 7.04899 8.6139L6.56297 8.64136V9.65027V10.6592L7.04899 10.6866C7.49451 10.7118 7.55147 10.7325 7.73189 10.9345C7.85515 11.0724 7.92877 11.2306 7.92877 11.3575C7.92877 11.4845 7.85515 11.6426 7.73189 11.7806C7.55147 11.9825 7.49451 12.0032 7.04899 12.0284L6.56297 12.0558V13.0648V14.0737L7.04899 14.1011C7.49451 14.1263 7.55147 14.147 7.73189 14.349C7.85515 14.4869 7.92877 14.6451 7.92877 14.772C7.92877 14.899 7.85515 15.0571 7.73189 15.1951C7.55147 15.397 7.49451 15.4177 7.04899 15.4429L6.56297 15.4703V16.8207V18.1711L7.04899 18.1985C7.49451 18.2237 7.55147 18.2444 7.73189 18.4463C7.85515 18.5843 7.92877 18.7424 7.92877 18.8694C7.92877 18.9963 7.85515 19.1545 7.73189 19.2924C7.55147 19.4944 7.49451 19.5151 7.04899 19.5403L6.56297 19.5677V20.2429V20.9181H8.61167H10.6604V13.4062V5.89433H8.61167H6.56297V6.56951ZM17.0511 8.2773C16.4196 9.37076 16.1065 9.98353 16.0568 10.2232C15.8782 11.0837 16.3555 12.0457 17.1668 12.4599C17.573 12.6674 18.2543 12.7068 18.7258 12.5502C19.2093 12.3896 19.7953 11.8097 19.9655 11.3234C20.1274 10.8608 20.1175 10.2424 19.9422 9.85514C19.6659 9.24538 18.0812 6.57266 18.0276 6.62626C17.9974 6.65645 17.558 7.39944 17.0511 8.2773ZM26.8958 8.38691L26.0943 9.99172H27.7328H29.3714L28.5698 8.38691C28.129 7.50426 27.7523 6.7821 27.7328 6.7821C27.7133 6.7821 27.3366 7.50426 26.8958 8.38691ZM28.4157 16.1378V20.9181H29.0986H29.7815V16.1378V11.3575H29.0986H28.4157V16.1378ZM25.6841 16.1378V20.9181H26.367H27.0499V16.1378V11.3575H26.367H25.6841V16.1378ZM17.2366 14.6146C17.1536 15.2222 16.9718 17.0706 16.9237 17.7938L16.8976 18.1865H18.17H19.4423L19.4238 17.9646C19.4135 17.8425 19.3727 17.3278 19.333 16.8207C19.2665 15.9713 19.1023 14.5669 19.0215 14.1557L18.9876 13.9833L18.1531 13.9983L17.3186 14.0132L17.2366 14.6146ZM16.8064 20.2352V20.9181H18.1722H19.538V20.2352V19.5523H18.1722H16.8064V20.2352ZM2.06759 23.5643C2.08746 24.7019 2.10638 24.8802 2.23674 25.1622C2.42434 25.5681 2.86904 26.0128 3.27489 26.2004L3.59237 26.3471H18.1722H32.7521L33.0696 26.2004C33.4754 26.0128 33.9201 25.5681 34.1077 25.1622C34.2381 24.8802 34.257 24.7019 34.2769 23.5643L34.2993 22.2839H18.1722H2.04519L2.06759 23.5643ZM21.1505 23.7166C21.3655 23.8035 21.5867 24.12 21.5867 24.3407C21.5867 24.4592 21.5088 24.6225 21.3875 24.7583L21.1883 24.9813L18.899 25.001L16.6096 25.0207L16.3852 24.8202C16.1989 24.6537 16.1608 24.571 16.1608 24.3326C16.1608 24.0949 16.199 24.0113 16.3823 23.8476L16.6038 23.6497L18.805 23.654C20.0157 23.6564 21.0711 23.6846 21.1505 23.7166ZM14.3215 23.7166C14.5365 23.8035 14.7577 24.12 14.7577 24.3407C14.7577 24.6141 14.4439 24.9421 14.1354 24.9911C13.9275 25.0241 13.8526 24.9981 13.659 24.825C13.4671 24.6536 13.4292 24.5723 13.4292 24.3326C13.4292 24.0949 13.4674 24.0113 13.6507 23.8476C13.875 23.6471 14.06 23.611 14.3215 23.7166ZM16.1235 29.3177V30.8884H18.1722H20.2209V29.3177V27.7471H18.1722H16.1235V29.3177ZM13.4838 32.3559C13.0287 32.4912 12.6112 32.803 12.3643 33.1923C12.2534 33.3671 12.1627 33.5348 12.1627 33.5651C12.1627 33.5953 14.867 33.62 18.1722 33.62C21.4775 33.62 24.1817 33.5945 24.1817 33.5634C24.1817 33.4344 23.7496 32.8679 23.5143 32.6884C22.9426 32.2524 23.022 32.2589 18.2017 32.2564C14.5196 32.2545 13.7722 32.2703 13.4838 32.3559Z" fill="#FF6600"/>
</svg>
